<svg id="Layer_1" data-name="Layer 1" xmlns="http://www.w3.org/2000/svg" viewBox="0 0 467.42 95.44"><defs><style>.cls-1{fill:#265529;}</style></defs><path class="cls-1" d="M47.72,34.37H37.3q2.94-11.26,5.68-27A55.11,55.11,0,0,1,49.42,7q3.13,0,20.45,1.51h.29a2.27,2.27,0,0,0,2-1.13,5,5,0,0,0,.71-2.75Q72.9,0,52.83,0L46,.09A70.26,70.26,0,0,0,26.7,2.56,38.3,38.3,0,0,0,13,9.18Q2.46,17.61,2.46,28.12A18.45,18.45,0,0,0,5.87,39q1.51,2.27,5.3,2.27C13.7,41.28,15,40.84,15,40a1.63,1.63,0,0,0-.29-.75,17.48,17.48,0,0,1-3.78-10.7q0-7.58,6.67-13.35t18.51-7.1q-.47,1.8-1.7,6.62t-2.84,11c-1.08,4.13-1.86,7.21-2.37,9.23q-7,.86-7,3.55t4.08,2.7h1.42q-2.85,11.93-6,16.66-3.6,5.3-9.18,5.3a8.51,8.51,0,0,1-4-.76L6.06,61.26,4.69,60.5A1.4,1.4,0,0,0,4,60.31,3.5,3.5,0,0,0,1.28,62,5,5,0,0,0,0,64.81a3.3,3.3,0,0,0,.19,1.47,10.07,10.07,0,0,0,5.07,4,18.55,18.55,0,0,0,7.43,1.61q10.13,0,15.52-9.09,3-5.21,7.3-19.88c.31-1.07.47-1.64.47-1.7l11.74-.67c1.32,0,2-1,2-3.07S49,34.37,47.72,34.37Z"/><path class="cls-1" d="M268.6,51.79a2.93,2.93,0,0,0-1.33.28,128.73,128.73,0,0,0-15.62,10q1.14-6.91,2.89-14.34a54.54,54.54,0,0,0,1.75-10c0-1.2-1-1.8-2.84-1.8q-3.22,0-4.35,4.26l-2.75,9.85q-2.83,9.55-7.86,9.56-3.31,0-3.31-4.31t2.37-12.26a12.6,12.6,0,0,1,.75-1.7A7.59,7.59,0,0,0,239.44,38a2.17,2.17,0,0,0-.85-1.89,3.31,3.31,0,0,0-2-.61,4.5,4.5,0,0,0-2.46.89,6,6,0,0,0-2,2.13,40.86,40.86,0,0,0-2.5,5.78,1.14,1.14,0,0,0-.53-.19,1.84,1.84,0,0,0-.76.1C225.27,46.05,223,47,221.69,47s-2-.47-2-1.42a15.33,15.33,0,0,1,1-3.27,14.07,14.07,0,0,0,1-4.78c0-2.14-1.39-3.22-4.17-3.22q-2.92,0-7.62,6.92a49.36,49.36,0,0,0-6.39,12.3l3.69-16.66a2.56,2.56,0,0,0-.75-1.89,2.68,2.68,0,0,0-2-.76q-3.12,0-4.55,4.26a69,69,0,0,0-2.7,14.36,2.6,2.6,0,0,0-1.41-.44,2.25,2.25,0,0,0-1.66.66q-6,6.63-10.51,6.63-3.89,0-3.88-9c0-1.13.06-2.71.19-4.73q9.93-4.06,14.77-4.83c1.07-.19,1.61-.72,1.61-1.61a3.13,3.13,0,0,0-.71-2.13,2,2,0,0,0-1.47-.8q-2.18,0-10,2.65a56.66,56.66,0,0,0,11-12.12,28.89,28.89,0,0,0,5.26-13.92V12.5a6.42,6.42,0,0,0-1.56-4.36q-1.58-1.8-5.16-1.8c-2.4,0-4.87,1.25-7.39,3.74a30.69,30.69,0,0,0-6.34,9.52,85.65,85.65,0,0,0-6.63,23.95c-1.64.76-2.84,1.34-3.6,1.75a2,2,0,0,0-1.13,1.8,3.17,3.17,0,0,0,.61,2,1.85,1.85,0,0,0,1.52.81,4,4,0,0,0,2.13-.86v1.05c0,1.1,0,2.14.11,3.13q-4.31,5-8.16,6.24a7.63,7.63,0,0,0,1-4,10.42,10.42,0,0,0-2-5.44,66.3,66.3,0,0,0-4.11-5.68c-1.39-1.7-2.09-2.87-2.09-3.5a3.69,3.69,0,0,1,.57-1.9,4.3,4.3,0,0,0,.57-2.27,3,3,0,0,0-1-2.32,3.45,3.45,0,0,0-2.41-.9,4.74,4.74,0,0,0-4.36,2.94q-5,10.2-8.5,16.77a1.69,1.69,0,0,0-.3.17q-6.72,6.45-14.3,6.44c-3.66,0-5.93-1.35-6.81-4.07q8.61-1.8,12.87-5a10.06,10.06,0,0,0,4.26-8.42,7.32,7.32,0,0,0-2.55-5.87,9.6,9.6,0,0,0-6.44-2.18c-4.36,0-8.06,2-11.13,6a25,25,0,0,0-2.44,3.94,1.56,1.56,0,0,0-.54.09c-3.09,1.83-5.32,2.74-6.67,2.74s-2-.47-2-1.42a15.33,15.33,0,0,1,1-3.27,14.07,14.07,0,0,0,1-4.78c0-2.14-1.39-3.22-4.17-3.22q-2.92,0-7.62,6.92a49.36,49.36,0,0,0-6.39,12.3l3.69-16.66a2.56,2.56,0,0,0-.75-1.89,2.68,2.68,0,0,0-2-.76c-2.08,0-3.6,1.42-4.54,4.26-.45,1.49-.84,3-1.19,4.49a18.64,18.64,0,0,1-8.47,4.31,19.3,19.3,0,0,0,.38-3,10,10,0,0,0-2.7-7.2,8.85,8.85,0,0,0-6.68-2.84q-6.81,0-11.88,6A20.76,20.76,0,0,0,50.94,54a12.34,12.34,0,0,0,3,8.52,9.91,9.91,0,0,0,7.76,3.41q11.09,0,14.2-12.6a29.59,29.59,0,0,0,8.23-3.64,68.91,68.91,0,0,0-.56,8.76v.75q0,6.26,3.88,6.25A4.21,4.21,0,0,0,91.55,63a112.4,112.4,0,0,1,8.71-19,17.63,17.63,0,0,1,1.52-2.27q-1.52,6-1.52,6.15,0,5.49,6.44,5.49a13.6,13.6,0,0,0,6.81-2c-.05.62-.09,1.25-.09,1.88q0,6.26,3.88,9.51A14.15,14.15,0,0,0,126.73,66a22,22,0,0,0,10.65-2.79,30.22,30.22,0,0,0,4.28-2.81,15.73,15.73,0,0,0,4.28,3.19,21.83,21.83,0,0,0,10.28,2.32,30.92,30.92,0,0,0,13.35-2.61,22.24,22.24,0,0,0,4.82-3c.19.46.4.91.62,1.33,1.48,2.74,4.06,4.12,7.72,4.12q7.14,0,14.2-7.64v1.1q0,6.26,3.88,6.25A4.22,4.22,0,0,0,204.88,63a111.62,111.62,0,0,1,8.71-19,17.63,17.63,0,0,1,1.52-2.27q-1.52,6-1.52,6.15,0,5.49,6.44,5.49a14.52,14.52,0,0,0,8.05-2.74,35.85,35.85,0,0,0-.48,5.77,9.44,9.44,0,0,0,2.32,6.49,7,7,0,0,0,5.4,2.6,11.11,11.11,0,0,0,6.2-2.08,13.8,13.8,0,0,0,4.74-5.21l-2.84,8.24c-.83.63-2.4,1.7-4.74,3.22a50.1,50.1,0,0,0-9.75,8,8.3,8.3,0,0,1-.85,1c-.51.54-.84.9-1,1.09s-.46.57-.9,1.14-.75,1-.94,1.27-.46.68-.81,1.19a6.57,6.57,0,0,0-.75,1.37l-.53,1.37a7,7,0,0,0-.56,2.94q0,6.44,7.85,6.44a15.37,15.37,0,0,0,7.34-1.75A17,17,0,0,0,243,89.47a25.63,25.63,0,0,0,3.6-6.44,68.34,68.34,0,0,0,4-14.1q2.74-1.8,18.46-11.08c1.33-.82,2-1.74,2-2.75a3.36,3.36,0,0,0-.85-2.41A2.36,2.36,0,0,0,268.6,51.79ZM187.75,18.18q2.64-4,5.3-4c.5.07.75.54.75,1.42a16,16,0,0,1-.33,3,13.22,13.22,0,0,1-1.32,3.6q-1,1.89-1.56,3a20.4,20.4,0,0,1-2.32,3.27c-1.17,1.42-1.93,2.31-2.28,2.69l-2.65,2.94c-1.42,1.58-2.19,2.43-2.32,2.56Q182.82,25.46,187.75,18.18Zm-120,38.91q-2.13,2.74-4.59,2.75c-3.22,0-4.83-2.09-4.83-6.25a16.61,16.61,0,0,1,2.56-8.76q2.55-4.21,6.15-4.21a1.9,1.9,0,0,1,1.47.57A3,3,0,0,1,69.12,43q-2.48,2.37-2.47,4.74t3.51,3.88A10.83,10.83,0,0,1,67.74,57.09Zm55.62-13.21c1.9-2.36,3.87-3.55,5.92-3.55s3.08.89,3.08,2.65q0,4.46-11.84,8.53A12,12,0,0,1,123.36,43.88ZM154.23,60.5h-.38q-2.37,0-5.68-2.56l6.25-12.68Q159,52,159,56.24T154.23,60.5Zm81.42,27.65a6,6,0,0,1-4.07,1.8,1.86,1.86,0,0,1-2.08-2.13c0-1.42,1.43-3.82,4.31-7.2a34.52,34.52,0,0,1,8.47-7.53Q239.63,84.27,235.65,88.15Z"/><path class="cls-1" d="M466.9,39.2a1.41,1.41,0,0,0-1.09-.76,2.48,2.48,0,0,0-1.13.28q-7.77,7.29-12.5,8.34c.12-1.27.19-2.24.19-2.94A11.3,11.3,0,0,0,450.19,37a7.4,7.4,0,0,0-6.2-2.79,16.4,16.4,0,0,0-7,1.37,14.88,14.88,0,0,0-4.73,3.32A21.56,21.56,0,0,0,428.89,44a57.5,57.5,0,0,0-3.32,8.38c-.17.57-.34,1.1-.49,1.59a2.56,2.56,0,0,0-1.49-.7,1.55,1.55,0,0,0-1.14.38q-6.26,6.06-8.71,6.63a3.43,3.43,0,0,1-.95.1c-1.51,0-2.27-.82-2.27-2.47q0-3.49,2.32-10.08c1.55-4.39,2.32-7.49,2.32-9.33q0-4.26-4.26-4.26-7.95,0-15.25,19.22,3-11.93,3-16.28a2.42,2.42,0,0,0-1.05-2.08,3.87,3.87,0,0,0-2.36-.76q-3,0-7.2,4.92t-8.33,15.34a97.89,97.89,0,0,1,3.5-17.52,3.84,3.84,0,0,0,.1-1,1.65,1.65,0,0,0-.76-1.32,2.77,2.77,0,0,0-1.71-.57q-2.55,0-3.59,3.22a71.47,71.47,0,0,0-3.23,14.34,2.12,2.12,0,0,0-1,.81q-4.92,6.35-8.52,6.34c-1.08,0-1.61-.76-1.61-2.27a4.7,4.7,0,0,1,.09-1l2.65-16.29v-.57c0-1.64-.88-2.46-2.65-2.46h-2.17v-.57c0-1.32-1.3-2-3.89-2q-6.9,0-13,6.67a22.48,22.48,0,0,0-5.67,10.84,2.57,2.57,0,0,0-.67-.09,1.56,1.56,0,0,0-1.47.66,36.35,36.35,0,0,1-11,11.12,26.85,26.85,0,0,1-14.91,4.31q-8.24,0-12.59-5.82t-4.35-16.62a39,39,0,0,1,8.47-25q8.47-10.65,18.79-10.65A10.59,10.59,0,0,1,327.16,11c1.61,1.27,2.41,3.3,2.41,6.11a10.12,10.12,0,0,1-3.27,7.43,19.52,19.52,0,0,1-8.66,4.74,13.53,13.53,0,0,0-4.5,1.79,2.48,2.48,0,0,0-1,1.9q0,2.74,3.5,2.74c.32,0,1-.06,2-.18a26,26,0,0,0,13.78-6.92,16.78,16.78,0,0,0,5.35-12.26q0-7-4.22-10.7T321.29,1.89a30.85,30.85,0,0,0-13.73,3.27,39.13,39.13,0,0,0-11.84,9,43.57,43.57,0,0,0-8.33,14,49.73,49.73,0,0,0-3.17,17.8q0,14.11,6.91,21.3a22.87,22.87,0,0,0,17.19,7.2A36.58,36.58,0,0,0,327.58,69,33.55,33.55,0,0,0,338.21,59a10.15,10.15,0,0,0,1.92,4,7.43,7.43,0,0,0,6.11,2.89,12.11,12.11,0,0,0,6.53-1.71A12.47,12.47,0,0,0,357,59.46v-.19a7.29,7.29,0,0,0,2.13,4.5,6.9,6.9,0,0,0,4.92,1.65,11.56,11.56,0,0,0,6.68-2.51,28.63,28.63,0,0,0,2.88-2.37c.21,3.24,1.42,4.88,3.65,4.88a5.23,5.23,0,0,0,1.61-.19,4.88,4.88,0,0,0,1.65-1.46,18.27,18.27,0,0,0,2.32-3.84,140.57,140.57,0,0,1,10.32-17.61q-3.49,13.44-3.5,18.18,0,4.92,3.69,4.92,2,0,3.51-3.12,7.67-16.95,11.83-20.45-3.78,12-4.26,16.38v.85a6.64,6.64,0,0,0,1.71,4.69,6.1,6.1,0,0,0,4.73,1.84h.19q3.21,0,7.62-2.55a23.76,23.76,0,0,0,4.85-3.76c-.41,1.89-1.13,5.42-2.15,10.62C420,77.27,419.13,82,419,84.08l-.1,1.13a3.41,3.41,0,0,0,.76,2l.66,1a6.45,6.45,0,0,0,3.22-1.09,4.92,4.92,0,0,0,2.27-2.42Q426.24,83.32,428,74t2-10.51a8.15,8.15,0,0,0,5.59,2.46,12.94,12.94,0,0,0,8.9-3.6,23.08,23.08,0,0,0,6.06-9.09,28.08,28.08,0,0,0,8.71-4.07,32.66,32.66,0,0,0,7.1-6,2.34,2.34,0,0,0,1-2A3.42,3.42,0,0,0,466.9,39.2Zm-110.35,11a15.72,15.72,0,0,1-3.17,6.25q-2.33,2.84-4.87,2.84-3.6,0-3.6-4.64t4.35-9.85q4.37-5.2,9.85-5.2Zm88.15-6.44a8.73,8.73,0,0,0-2.32,2.42,5.56,5.56,0,0,0-.52,2.6,4.06,4.06,0,0,0,2.36,4,14.24,14.24,0,0,1-3.64,4.92,7.15,7.15,0,0,1-4.69,1.89,7.31,7.31,0,0,1-4.73-1.89c.13-.44.43-1.61.9-3.5s.91-3.47,1.32-4.74a36.51,36.51,0,0,1,1.75-4.26,9.51,9.51,0,0,1,2.8-3.6,6.24,6.24,0,0,1,3.83-1.23q2.17,0,3.32,2.94A1,1,0,0,0,444.7,43.74Z"/></svg>